<svg xmlns="http://www.w3.org/2000/svg" width="260" height="77.545" viewBox="0 0 260 77.545">
  <g id="logo" transform="translate(-19.816 -83.523)">
    <path id="Path_1" data-name="Path 1" d="M82.7,125.363a1.084,1.084,0,0,0-1.317-.746,12.939,12.939,0,0,0-4.07,2.032,14.253,14.253,0,0,0-5.582,8.085,19.244,19.244,0,0,0-.275,7.354c-.155.07-.31.135-.466.2a39.707,39.707,0,0,1-3.745,1.347c-.441.135-.886.265-1.322.405h0a7.322,7.322,0,0,1,.731-1.757c.13-.23.275-.456.431-.681a.176.176,0,0,1,.025-.04c.25-.36.486-.686.691-1.036a1.35,1.35,0,0,0,.08-.145,5.168,5.168,0,0,0,.32-.691,8.536,8.536,0,0,0,.456-1.832,15.038,15.038,0,0,0-1.627-9.6,7.315,7.315,0,0,0-4.1-3.424,1.088,1.088,0,0,0-1.206.491,12.729,12.729,0,0,0-1.567,3.8,10.849,10.849,0,0,0,.986,8.14,12.645,12.645,0,0,0,3.679,3.875,7.851,7.851,0,0,0-1.191,3.865,9.666,9.666,0,0,0-2.778,2.5,12.7,12.7,0,0,0-2.248,5.291q-.4-1.682-.746-3.369c-.521-2.563-.951-5.166-1.242-7.785a.94.94,0,0,0-.045-.405,57.261,57.261,0,0,1-.13-11.529,35.675,35.675,0,0,1,.776-4.766c.205-.866.461-1.707.741-2.543a.835.835,0,0,1,.06-.115,4.451,4.451,0,0,1,.26-.416c.035-.05.07-.1.11-.15-.055.08.16-.2.205-.255a6.968,6.968,0,0,1,3.189-2.063c1.987-.666,4.115-.546,6.067-1.347a8.427,8.427,0,0,0,3.469-2.493,8.727,8.727,0,0,0,.576-.811,9.656,9.656,0,0,0,6.673-2.058,6.718,6.718,0,0,0,2.113-3.92,5.58,5.58,0,0,0,.1-1.116,1.089,1.089,0,0,0-.786-1.031,7.6,7.6,0,0,0-6.423,1.657,12.586,12.586,0,0,0-3.084,3.9q-.263.5-.481,1.021a.433.433,0,0,0-.035.085c-.01.025-.02.045-.03.07a.8.8,0,0,0-.03.5c-.06.1-.12.185-.185.28-.035.045-.07.085-.105.125-.085.1-.165.19-.255.28a6.144,6.144,0,0,1-2.468,1.6,9.685,9.685,0,0,1-1.327.37,14.619,14.619,0,0,0,.751-1.807,15.816,15.816,0,0,1,2.027-3.93,27.214,27.214,0,0,1,3.289-3.91,9.663,9.663,0,0,0,4.946-4.931,6.713,6.713,0,0,0,.035-4.48,5.436,5.436,0,0,0-.446-1.036,1.085,1.085,0,0,0-1.206-.491,7.473,7.473,0,0,0-4.776,4.265,12.87,12.87,0,0,0-.991,5.076,9.757,9.757,0,0,0,.04,1.011c-.626.681-1.221,1.392-1.787,2.123-.08-.155-.155-.31-.23-.466-.035-.075-.065-.145-.1-.22-.005-.015-.1-.245-.11-.275-.09-.24-.175-.481-.25-.726a10.659,10.659,0,0,1-.365-1.582A11.415,11.415,0,0,1,68.6,97.138a9.818,9.818,0,0,0,5.171-5.046,6.713,6.713,0,0,0,.035-4.48,5.437,5.437,0,0,0-.446-1.036,1.085,1.085,0,0,0-1.206-.491,7.473,7.473,0,0,0-4.776,4.265,12.87,12.87,0,0,0-.991,5.076,10.486,10.486,0,0,0,.04,1.051.252.252,0,0,0,.01.06,13.1,13.1,0,0,0-2.138,8.831,12.511,12.511,0,0,0,1.8,4.956,15.677,15.677,0,0,0-1.677,3.369,13.913,13.913,0,0,1-1.577,3.274,11.016,11.016,0,0,0-2.022.521,11.741,11.741,0,0,0-1.307.591,40.431,40.431,0,0,0,1.552-5.657c.5-2.643.606-5.377-.706-7.785.27-1.292.606-2.568.981-3.83.17-.566.35-1.131.551-1.692s.37-1,.581-1.462a10.725,10.725,0,0,1,.731-1.357c.03-.05.065-.1.1-.145a.845.845,0,0,0,.32-.23c1.722-1.977,3.3-4.491,3.1-7.224a6.914,6.914,0,0,0-1.932-4.3,5.614,5.614,0,0,0-.846-.731,1.092,1.092,0,0,0-1.3.165c-3.2,2.838-2.939,7.554-1.121,11.124a8.9,8.9,0,0,0-.766,1.322,25.159,25.159,0,0,0-1.387,3.624c-.225.731-.436,1.472-.626,2.213q-.128-.225-.24-.466c-.025-.05-.045-.105-.07-.155s-.04-.11-.06-.16c-.2-.541-.385-1.086-.571-1.632a.289.289,0,0,0,.015-.07c.461-2.6.526-5.572-1.071-7.825a6.918,6.918,0,0,0-3.835-2.673,5.607,5.607,0,0,0-1.116-.2,1.086,1.086,0,0,0-1.031.786c-1.3,4.11,1.312,7.759,4.581,9.987.08.055.165.11.25.165a26.263,26.263,0,0,0,1.021,2.753,16.572,16.572,0,0,0,1.362,2.218,10.716,10.716,0,0,1,.676,1.131c.05.105.1.21.15.31h0c.015.04.035.085.05.125.085.24.165.481.23.726.03.12.06.245.085.37.015.075.03.15.04.225.005.02.015.08.02.125s.01.085.01.1c.005.07.015.145.02.215.015.175.025.355.03.536.01.37,0,.736-.02,1.106-.01.19-.025.375-.045.566-.01.1-.02.2-.03.3-.005.04-.025.2-.03.23a26.848,26.848,0,0,1-.531,2.673,9.957,9.957,0,0,0-1.377-1.972,9.722,9.722,0,0,0-1.121-1.056.841.841,0,0,0-.28-.215,10.674,10.674,0,0,0-1.016-.691c-1.091-.666-2.313-1.046-3.409-1.7a7.178,7.178,0,0,1-1.707-1.407.984.984,0,0,0-.125-.16c-.03-.04-.06-.085-.085-.125-.09-.14-.175-.28-.255-.426-.04-.08-.08-.16-.12-.245v-.005a4.286,4.286,0,0,1-.155-.491c-.02-.075-.07-.405-.075-.36a4.127,4.127,0,0,1-.01-.746l.015-.165v-.005c.025-.11.04-.225.07-.335.04-.15.09-.3.14-.446a1.59,1.59,0,0,0,.07-.2c2.243-3.81.36-8.52-2.658-11.369l-.01-.01a1.057,1.057,0,0,0-1.667.225c-1.131,2.383-1.987,5.251-1.031,7.845a6.944,6.944,0,0,0,2.984,3.569.548.548,0,0,1,.055.03,5.469,5.469,0,0,0,.23,3c-.345-.01-.686-.03-1.031-.06-.235-.025-.636-.09-1-.17a9.425,9.425,0,0,1-1.282-.38,6.379,6.379,0,0,1-1.617-.921,7.485,7.485,0,0,0-1.452-5.752,12.866,12.866,0,0,0-3.915-3.354A9.356,9.356,0,0,0,35.863,95c-.025-.01-.05-.02-.07-.03a1.059,1.059,0,0,0-.471-.12.971.971,0,0,0-.546.155,1,1,0,0,0-.375.375,1.062,1.062,0,0,0-.13.421.985.985,0,0,0-.015.12c-.255,2.658.04,5.517,1.812,7.634a6.717,6.717,0,0,0,3.865,2.218c.14.025.28.05.421.07a10.572,10.572,0,0,0,8.03,2.388c.055.06.115.125.175.185a9.969,9.969,0,0,0,2.763,1.892c.511.24,1.021.466,1.522.706a30.1,30.1,0,0,1-5.577,1.126,5.643,5.643,0,0,0-5.216-.786,9.384,9.384,0,0,0-2.663,1.342,1.035,1.035,0,0,0-.21.155c-.035.025-.07.05-.105.08a1.073,1.073,0,0,0,0,1.512,1.026,1.026,0,0,0,.225.17c1.872,1.247,4.21,2.048,6.358,1.031a4.934,4.934,0,0,0,1.722-1.372,37.225,37.225,0,0,0,7.8-1.737,7.556,7.556,0,0,1,1.116,1.272,7.248,7.248,0,0,1,.561.976l.09.2c.015.04.055.13.06.15.06.16.12.325.17.491a9.04,9.04,0,0,1,.225.951c.01.045.01.085.02.13v.02c.01.105.02.215.025.32.01.155.015.315.01.476-.06.18-.125.365-.19.546-.441,1.267-.946,2.508-1.377,3.78-.01.025-.02.045-.03.07l-.03.105c-.085.255-.165.506-.24.766a33.714,33.714,0,0,0-1.021,4.771,53.309,53.309,0,0,0-.36,10.868c-.561-.591-1.131-1.171-1.722-1.727a41.449,41.449,0,0,0-8.816-6.473,19.954,19.954,0,0,0-.045-3.044,16.727,16.727,0,0,0-.771-3.539A17.153,17.153,0,0,0,39.587,118a22.322,22.322,0,0,0-7.885-5.712,18.14,18.14,0,0,0-2.083-.816,1.082,1.082,0,0,0-1.357,1.031,22.472,22.472,0,0,0,.461,3.835,23.508,23.508,0,0,0,2.7,7.469,15.181,15.181,0,0,0,7.174,6.443l.18.075a61.51,61.51,0,0,0-6.6.736,16.6,16.6,0,0,0-9.306,4.485,12.333,12.333,0,0,0-3.024,5.767,1.109,1.109,0,0,0,.746,1.317,10.37,10.37,0,0,0,4.13.636,9.708,9.708,0,0,0,7.574-4.06,16.8,16.8,0,0,0,2.683-6.4c1.136-.12,2.278-.2,3.409-.285,1.382-.105,2.768-.2,4.15-.24a1.357,1.357,0,0,0,.305-.055c.726.39,1.442.8,2.148,1.257a39.4,39.4,0,0,1,4.9,3.73,43.844,43.844,0,0,1,3.584,3.569c.33.375.661.751.976,1.141.02.025.04.05.06.08q.323,2.853.831,5.667a88.776,88.776,0,0,0,3.054,12.4,1.8,1.8,0,0,1,.07.215.8.8,0,0,0,.13.315.929.929,0,0,0,.711.441,1.086,1.086,0,0,0,.476-.01.978.978,0,0,0,.636-.511,1,1,0,0,0,.11-.8v-.005h0c-.005-.035-.01-.075-.015-.11,0-.01,0-.015-.005-.02-.03-.285-.065-.566-.085-.851a22.767,22.767,0,0,1-.05-2.864c.015-.285.03-.566.055-.846.01-.14.025-.275.04-.415.01-.1.02-.185.03-.28a.23.23,0,0,0,.005-.05c0-.01.005-.025.005-.045a16.494,16.494,0,0,1,.37-1.832,9.718,9.718,0,0,1,1.562-3.459,5.257,5.257,0,0,1,.521-.646,8.515,8.515,0,0,1,.811-.781,6.672,6.672,0,0,1,.681-.491,9.215,9.215,0,0,1,1.021-.561,28.452,28.452,0,0,1,2.894-.941q1.87-.608,3.674-1.382.458-.2.9-.405a1.088,1.088,0,0,0,.23-.11,19.709,19.709,0,0,0,7.564-5.887C83.431,134.138,83.731,129.6,82.7,125.363ZM73.844,111.03a7.2,7.2,0,0,1,2.4-1.942,5.485,5.485,0,0,1,1.487-.461c-.025,0,.29-.025.33-.03.165-.01.33-.01.491-.01h0a.424.424,0,0,1-.02.085,7.793,7.793,0,0,1-.255.821c0,.005-.005.01-.005.015-.035.065-.06.135-.1.205a4.922,4.922,0,0,1-.25.451c-.08.135-.17.26-.26.385-.025.03-.045.06-.07.085-.07.075-.14.155-.21.235-.135.14-.275.265-.421.4-.045.035-.065.06-.08.07s-.015.01-.045.025c-.1.07-.2.14-.3.2a5.168,5.168,0,0,1-1.141.561,8.692,8.692,0,0,1-1.777.411c.25-.175.5-.355.751-.531.436-.3.871-.6,1.312-.891a15.546,15.546,0,0,1,1.362-.816,14.174,14.174,0,0,0-1.527.481c-.5.18-1,.37-1.5.566-.22.085-.436.175-.651.26C73.519,111.415,73.634,111.27,73.844,111.03Zm-4.1,3.109c0,.005-.005.005-.005.01C69.714,114.189,69.629,114.289,69.749,114.139Zm-.976-21.116a10.482,10.482,0,0,1,.335-1.237,5.245,5.245,0,0,1,.441-1.021c.1-.185.205-.365.32-.541.06-.09.12-.175.18-.26.015-.02.02-.03.025-.035.035-.045.07-.085.105-.13a4.956,4.956,0,0,1,1.667-1.317,1.293,1.293,0,0,0,.04.13c.035.125.06.255.085.38.01.065.02.13.035.19,0,.005.005.01.005.015v.035a6.776,6.776,0,0,1,.02.956c-.005.09-.015.185-.025.275h0a.155.155,0,0,1-.01.04c-.04.2-.08.39-.135.586a4.566,4.566,0,0,1-.175.5c-.015.03-.055.115-.07.15-.055.105-.105.205-.165.305a4.783,4.783,0,0,1-.786,1.066,7.869,7.869,0,0,1-1.131.991c.09-.335.175-.676.27-1.011.14-.511.285-1.016.436-1.527a14.3,14.3,0,0,1,.521-1.5,13.96,13.96,0,0,0-.861,1.347c-.27.461-.531.926-.786,1.392-.155.28-.305.561-.456.846a.176.176,0,0,1,.005-.03C68.7,93.423,68.733,93.223,68.773,93.023Zm2.688,10.618c.01-.05.02-.15.025-.17.03-.2.07-.4.11-.6a10.483,10.483,0,0,1,.335-1.236,5.244,5.244,0,0,1,.441-1.021c.1-.185.205-.365.32-.541.06-.09.12-.175.18-.26.015-.02.02-.03.025-.035.035-.045.07-.085.105-.13a4.957,4.957,0,0,1,1.667-1.317,1.293,1.293,0,0,0,.04.13c.035.125.06.255.085.38.01.065.02.125.035.19,0,.005.005.01.005.015v.035a6.777,6.777,0,0,1,.02.956c-.005.09-.015.185-.025.275h0a.154.154,0,0,1-.01.04c-.04.2-.08.39-.135.586a4.564,4.564,0,0,1-.175.5c-.015.03-.055.115-.07.15-.055.105-.105.205-.165.305a4.783,4.783,0,0,1-.786,1.066,8.369,8.369,0,0,1-1.121.986c.04-.15.08-.3.12-.446.14-.511.285-1.016.436-1.527a14.3,14.3,0,0,1,.521-1.5,13.962,13.962,0,0,0-.861,1.347c-.27.461-.531.926-.786,1.392-.12.22-.24.446-.36.666.005-.03.005-.055.01-.085S71.456,103.691,71.461,103.641ZM62.9,85.519l.005.005C62.605,85.344,62.805,85.439,62.9,85.519Zm-.456,2.758a5.115,5.115,0,0,1,1.031-2.188c.09.105.21.255.18.215.08.11.16.22.23.335a5.227,5.227,0,0,1,.29.516c.03.06.055.12.085.18.01.03.08.2.09.235a5.455,5.455,0,0,1,.175.621c.025.105.04.205.06.31-.005,0,.025.26.025.29a4.53,4.53,0,0,1-.145,1.537,7.823,7.823,0,0,1-.9,2.128c-.005-.21-.01-.426-.01-.636-.005-.531-.005-1.056.005-1.587a15.242,15.242,0,0,1,.1-1.582,15.917,15.917,0,0,0-.466,1.532c-.135.516-.26,1.036-.38,1.557-.025.11-.05.225-.075.335-.08-.275-.155-.556-.215-.841A7.642,7.642,0,0,1,62.44,88.277ZM51.762,91.066l-.05-.015A.271.271,0,0,0,51.762,91.066Zm2.713,5.106a6.01,6.01,0,0,1-1.842-4.9c.055.02.115.035.17.055s.115.045.175.065a.017.017,0,0,1,.01,0c.125.06.25.115.375.18s.265.145.4.225c.065.04.135.085.2.13.025.015.1.075.145.105s.1.085.115.1c.065.055.13.115.2.175.14.135.27.275.4.426a.915.915,0,0,1,.065.08c.055.075.11.15.16.23a5.918,5.918,0,0,1,.33.576c.04.08.075.16.115.24.01.03.065.17.08.21a7.636,7.636,0,0,1,.225.751,7.914,7.914,0,0,1,.2,1.857l-.165-.315c-.24-.471-.481-.941-.711-1.417a14.953,14.953,0,0,1-.631-1.452,15.51,15.51,0,0,0,.275,1.577c.115.521.235,1.041.365,1.557.02.075.04.155.06.23C54.941,96.642,54.7,96.412,54.475,96.172Zm-16.12,6.618c-.01-.005-.015-.01-.025-.015s-.015-.01-.025-.02c-.145-.13-.29-.255-.431-.39-.115-.115-.22-.24-.325-.365-.015-.02-.125-.17-.145-.2-.065-.1-.13-.2-.2-.305a6.636,6.636,0,0,1-.31-.591c-.005-.01-.02-.045-.03-.07a.73.73,0,0,1-.035-.1c-.05-.135-.1-.265-.14-.4a9.084,9.084,0,0,1-.39-2.668c.18.115.355.23.531.35a7.875,7.875,0,0,1,1.006.806,7.2,7.2,0,0,1,1.887,2.473,4.288,4.288,0,0,1,.23.636,4.451,4.451,0,0,1,.11.446c.01.04.055.34.055.32.01.1.02.185.025.28-.285-.31-.566-.626-.846-.941-.35-.4-.7-.8-1.036-1.2a15.762,15.762,0,0,1-.971-1.252,15.224,15.224,0,0,0,.656,1.457c.24.476.486.951.736,1.422.14.26.285.526.426.786a5.961,5.961,0,0,1-.551-.31A1.842,1.842,0,0,0,38.356,102.79Zm10.8,2.8c.015.05.04.115,0,0Zm-2.593-5.5a.321.321,0,0,1-.05-.065,6.776,6.776,0,0,1-.556-.936c-.01-.015-.015-.03-.02-.035s-.005-.02-.01-.03c-.035-.1-.075-.2-.105-.3a5.924,5.924,0,0,1-.17-.651c-.005-.035-.03-.165-.04-.21s-.02-.19-.025-.225c-.02-.26-.025-.526-.02-.786a8.978,8.978,0,0,1,.556-2.693,11.949,11.949,0,0,1,1.066,1.707,6.176,6.176,0,0,1,.631,4.806c-.13-.335-.26-.671-.385-1.006-.185-.5-.365-.991-.536-1.492a14.636,14.636,0,0,1-.451-1.517,15.515,15.515,0,0,0,.085,1.6c.05.531.11,1.061.175,1.592.02.16.04.315.06.476a.769.769,0,0,1-.06-.065C46.661,100.207,46.611,100.152,46.566,100.1Zm-1.977,13.677c.025-.01.025-.005,0,0Zm.135-.065a1.572,1.572,0,0,1-.16.075c-.02.005-.04.015-.065.02-.15.045-.3.085-.451.125a1.036,1.036,0,0,1-.11.02c-.09.01-.18.015-.27.02a4.245,4.245,0,0,1-.566-.02,4.435,4.435,0,0,1-1.1-.31c.135-.06.265-.115.385-.155a3.979,3.979,0,0,1,2.848-.1l-.05.05a.347.347,0,0,0-.08.05C44.979,113.563,44.853,113.638,44.723,113.708ZM30.846,137.577a7.833,7.833,0,0,1-2.994,2.763l-.365.18c-.02.01-.07.03-.11.045l-.15.06a8.86,8.86,0,0,1-.876.27c-.26.065-.526.105-.791.16h-.01c-.065.005-.13.015-.2.02-.15.015-.3.025-.446.035a9.834,9.834,0,0,1-1.487-.035l-.275-.03-.105-.015c-.2-.03-.39-.065-.581-.11l-.26-.06a9.727,9.727,0,0,1,1.927-3.519,11.431,11.431,0,0,1,3.785-2.778,16.274,16.274,0,0,1,2.934-1.051c-.711.586-1.432,1.166-2.153,1.742q-1.119.894-2.258,1.757c-.38.285-.766.571-1.151.841s-.786.541-1.2.781c.451-.155.9-.335,1.342-.526s.876-.4,1.312-.6c.866-.411,1.732-.836,2.588-1.272s1.712-.876,2.563-1.322c.11-.06.22-.115.33-.175A13.007,13.007,0,0,1,30.846,137.577Zm6.032-10.758a13.632,13.632,0,0,1-2.909-3.044,19.64,19.64,0,0,1-2.994-7.179c-.13-.576-.235-1.151-.325-1.737-.02-.13-.035-.26-.06-.39.005.02.005.045.01.08-.005-.025-.005-.055-.01-.08h0c-.01-.055-.02-.165-.005-.02a.552.552,0,0,1-.01-.09c-.01-.09-.02-.185-.03-.275a24.692,24.692,0,0,1,3.174,1.687c.33.21.656.426.976.656.175.12.345.25.516.375.03.02.09.07.12.09.085.065.17.135.255.2a19.106,19.106,0,0,1,1.982,1.837,14.424,14.424,0,0,1,3.925,8.24c.04.375.07.751.09,1.131-.355-.456-.711-.911-1.061-1.367-.861-1.116-1.722-2.243-2.568-3.369s-1.682-2.268-2.5-3.419l-.606-.871c-.205-.29-.4-.586-.591-.876-.39-.586-.766-1.186-1.106-1.807.255.661.541,1.312.851,1.952.155.32.305.641.471.956l.481.951c.656,1.262,1.332,2.508,2.017,3.755s1.382,2.478,2.088,3.715c.04.075.085.15.13.225A14.333,14.333,0,0,1,36.879,126.819ZM58.8,106.229c.005.02.015.035.02.055C58.811,106.264,58.8,106.244,58.8,106.229Zm.02.055c.06.12.035.08,0,0ZM63.2,136.521a9.131,9.131,0,0,1-.516-.916,5.393,5.393,0,0,1-.355-.881c-.09-.28-.17-.571-.235-.861-.03-.14-.06-.285-.08-.426a2.167,2.167,0,0,1-.045-.35,10.124,10.124,0,0,1-.005-1.827c.01-.13.025-.26.04-.385.01-.06.02-.125.03-.185.045-.27.1-.541.16-.806a13.124,13.124,0,0,1,.426-1.437c.065-.185.14-.365.21-.546,0-.005.005-.01.005-.015s.005-.01.005-.015.015-.035.025-.055c.04-.085.075-.17.115-.255.05-.11.105-.22.155-.33a.2.2,0,0,1,.045.025,3.77,3.77,0,0,1,.706.491,5.84,5.84,0,0,1,1.247,1.512,11.261,11.261,0,0,1,1.412,4.185,15.486,15.486,0,0,1,.155,2.123c0,.345-.01.7-.035,1.041-.01.16-.025.315-.04.476-.01.08-.015.16-.03.245v.015c-.005.02-.005.05-.01.08q-.443-1.021-.871-2.043c-.405-.981-.811-1.962-1.191-2.949-.19-.5-.375-.991-.551-1.492s-.34-1-.476-1.517c.04.531.105,1.061.19,1.592s.175,1.056.27,1.582c.2,1.046.416,2.1.636,3.139s.456,2.068.691,3.094A10.364,10.364,0,0,1,63.2,136.521Zm16.02-.28a14.673,14.673,0,0,1-4.315,4.02c.085-.215.17-.426.255-.641q.593-1.472,1.211-2.944c.411-.976.831-1.952,1.267-2.919.22-.481.441-.961.676-1.437s.481-.946.751-1.4c-.35.4-.686.821-1,1.247s-.631.866-.936,1.3c-.611.876-1.206,1.762-1.8,2.653s-1.166,1.787-1.742,2.688c-.075.12-.15.24-.225.355a15.435,15.435,0,0,1,.31-3.354A11.672,11.672,0,0,1,75.6,131.3c.1-.14.2-.275.3-.416.03-.04.08-.105.09-.115.06-.07.115-.14.175-.21.225-.27.466-.526.711-.776.235-.235.481-.466.731-.681.1-.085.205-.175.305-.255.06-.05.12-.1.185-.145a.312.312,0,0,1,.03-.02q.023-.015.06-.045a14.9,14.9,0,0,1,2.628-1.547.344.344,0,0,0,.065-.03A12.241,12.241,0,0,1,79.221,136.241Z" fill="#48bf84"/>
    <path id="Path_2" data-name="Path 2" d="M41.335,160.945h0a.045.045,0,0,0-.005-.025A.054.054,0,0,1,41.335,160.945Z" transform="translate(-10.744 -38.651)"/>
    <g id="Group_1" data-name="Group 1" transform="translate(26.386 90.545)">
      <path id="Path_3" data-name="Path 3" d="M34.587,163.52l.355-.12v-6.618l-.045-.105c-.345-.766-.661-1.567-.936-2.388L32.94,151.23v12.926l.721-.285C33.956,163.745,34.272,163.63,34.587,163.52Z" transform="translate(-32.94 -124.357)" fill="#2e2c2f"/>
      <path id="Path_4" data-name="Path 4" d="M130.782,149.435c-.3.08-.606.15-.916.215l-.426.085v8.8l.841-.641c.155-.115.29-.22.421-.31.155-.11.325-.225.511-.35l.23-.155V149.26Z" transform="translate(-81.131 -123.373)" fill="#2e2c2f"/>
      <path id="Path_5" data-name="Path 5" d="M117.99,206.1l-.285.145v6.523H106.456l-.115.37c-.055.185-.115.38-.17.6-.035.125-.065.255-.1.39l-.145.641h13.782v-9.6l-.781.436C118.621,205.771,118.305,205.941,117.99,206.1Z" transform="translate(-69.39 -151.294)" fill="#2e2c2f"/>
      <path id="Path_6" data-name="Path 6" d="M34.617,116.343l.325-.135V99.552H41.32l.04-.005a3.209,3.209,0,0,1,1.026,0l.04.005h6.082l.13-.335c.12-.31.25-.621.385-.931l.325-.736H32.94V117.5l.851-.676A3.348,3.348,0,0,1,34.617,116.343Z" transform="translate(-32.94 -97.55)" fill="#2e2c2f"/>
      <path id="Path_7" data-name="Path 7" d="M60.484,213.719l-.09-.41H34.947V206.25l-.666.19c-.3.085-.611.16-.911.22l-.421.085v8.57h27.9l-.15-.641C60.624,214.355,60.554,214.04,60.484,213.719Z" transform="translate(-32.945 -151.833)" fill="#2e2c2f"/>
    </g>
    <g id="Group_4" data-name="Group 4" transform="translate(88.707 102.199)">
      <g id="Group_2" data-name="Group 2" transform="translate(0)">
        <path id="Path_8" data-name="Path 8" d="M174.546,139.022a7.886,7.886,0,0,1-3.324,2.032,14.425,14.425,0,0,1-4.8.771,8.563,8.563,0,0,1-6.413-2.453,9.966,9.966,0,0,1-2.568-6.833l-.015-1.767a12.179,12.179,0,0,1,1.066-5.266,7.88,7.88,0,0,1,3.054-3.464,8.606,8.606,0,0,1,4.6-1.211,9.038,9.038,0,0,1,5.927,1.747,7.418,7.418,0,0,1,2.463,5.211H169.8a3.875,3.875,0,0,0-1.1-2.443,3.533,3.533,0,0,0-2.383-.731,3.219,3.219,0,0,0-2.864,1.572,8.368,8.368,0,0,0-1.026,4.49v1.237a8.232,8.232,0,0,0,1.046,4.6,3.689,3.689,0,0,0,3.289,1.537,4.148,4.148,0,0,0,2.863-.856v-3.169H166.2v-3.379h8.345Z" transform="translate(-157.43 -120.83)" fill="#48bf84"/>
        <path id="Path_9" data-name="Path 9" d="M204.929,134.611h-2.663v7.224H197.34V121.41h8.04a8.962,8.962,0,0,1,5.682,1.612,5.461,5.461,0,0,1,2.047,4.556,6.607,6.607,0,0,1-.861,3.529,6.174,6.174,0,0,1-2.7,2.273l4.265,8.245v.21h-5.281Zm-2.663-3.79h3.114a2.808,2.808,0,0,0,2.113-.736,3.353,3.353,0,0,0,0-4.135,2.766,2.766,0,0,0-2.1-.751h-3.114v5.622Z" transform="translate(-177.361 -121.12)" fill="#48bf84"/>
        <path id="Path_10" data-name="Path 10" d="M247.45,133.164h-7.744v4.881h9.146v3.79H234.78V121.41h14.1v3.8H239.7v4.305h7.744v3.649Z" transform="translate(-196.058 -121.12)" fill="#48bf84"/>
        <path id="Path_11" data-name="Path 11" d="M279.565,133.164h-7.745v4.881h9.146v3.79H266.9V121.41H281v3.8h-9.176v4.305h7.745Z" transform="translate(-212.098 -121.12)" fill="#48bf84"/>
        <path id="Path_12" data-name="Path 12" d="M316.071,141.835h-4.9l-7.239-12.711v12.711H299.01V121.41h4.926l7.224,12.711V121.41h4.911Z" transform="translate(-228.133 -121.12)" fill="#48bf84"/>
        <path id="Path_13" data-name="Path 13" d="M363.626,138.02h-6.748l-1.176,3.815H350.44l7.489-20.425h4.631l7.549,20.425h-5.286Zm-5.572-3.8h4.39l-2.2-7.084Z" transform="translate(-253.817 -121.12)" fill="#48bf84"/>
        <path id="Path_14" data-name="Path 14" d="M400.279,134.611h-2.663v7.224H392.69V121.41h8.04a8.963,8.963,0,0,1,5.682,1.612,5.461,5.461,0,0,1,2.047,4.556,6.607,6.607,0,0,1-.861,3.529,6.142,6.142,0,0,1-2.7,2.273l4.265,8.245v.21h-5.276Zm-2.663-3.79h3.114a2.808,2.808,0,0,0,2.113-.736,3.353,3.353,0,0,0-.005-4.135,2.766,2.766,0,0,0-2.1-.751h-3.114v5.622Z" transform="translate(-274.916 -121.12)" fill="#48bf84"/>
        <path id="Path_15" data-name="Path 15" d="M442.8,133.164h-7.744v4.881H444.2v3.79H430.13V121.41h14.1v3.8h-9.176v4.305H442.8v3.649Z" transform="translate(-293.613 -121.12)" fill="#48bf84"/>
        <path id="Path_16" data-name="Path 16" d="M479.311,141.835h-4.9l-7.239-12.711v12.711H462.25V121.41h4.926l7.224,12.711V121.41h4.911Z" transform="translate(-309.653 -121.12)" fill="#48bf84"/>
        <path id="Path_17" data-name="Path 17" d="M513.076,138.02h-6.748l-1.176,3.815H499.89l7.489-20.425h4.631l7.549,20.425h-5.286Zm-5.572-3.8h4.39l-2.2-7.084Z" transform="translate(-328.45 -121.12)" fill="#48bf84"/>
      </g>
      <g id="Group_3" data-name="Group 3" transform="translate(1.001 30.507)">
        <path id="Path_18" data-name="Path 18" d="M165.212,186.38a2.486,2.486,0,0,1-1,1.066,3.277,3.277,0,0,1-1.707.405h-1.4v3.624H159.43V182.04h3.084a3.351,3.351,0,0,1,1.657.38,2.507,2.507,0,0,1,1.026,1.041,3.191,3.191,0,0,1,.34,1.5A3.415,3.415,0,0,1,165.212,186.38Zm-1.747-.415a1.413,1.413,0,0,0,.335-1.006,1.211,1.211,0,0,0-1.367-1.377H161.1v2.743h1.332A1.337,1.337,0,0,0,163.465,185.965Z" transform="translate(-159.43 -181.905)" fill="#2e2c2f"/>
        <path id="Path_19" data-name="Path 19" d="M190.037,189.975H192.8v1.5H188.36V182.04h1.677Z" transform="translate(-173.877 -181.905)" fill="#2e2c2f"/>
        <path id="Path_20" data-name="Path 20" d="M218.347,189.669h-3.334l-.551,1.8H212.7l3.009-9.447h1.957l3.009,9.447H218.9Zm-.456-1.517-1.212-3.945-1.211,3.945Z" transform="translate(-186.032 -181.895)" fill="#2e2c2f"/>
        <path id="Path_21" data-name="Path 21" d="M252.424,191.467h-1.677l-3.8-6.473v6.473H245.27V182.02h1.677l3.8,6.488V182.02h1.677Z" transform="translate(-202.297 -181.895)" fill="#2e2c2f"/>
        <path id="Path_22" data-name="Path 22" d="M282.493,182.04v1.527H280.26v7.9h-1.677v-7.9H276.35V182.04Z" transform="translate(-217.818 -181.905)" fill="#2e2c2f"/>
        <path id="Path_23" data-name="Path 23" d="M306.532,191.1a2.719,2.719,0,0,1-1.111-.971,2.823,2.823,0,0,1-.42-1.5h1.8a1.4,1.4,0,0,0,.365.921,1.2,1.2,0,0,0,.906.335,1.285,1.285,0,0,0,.921-.315,1.087,1.087,0,0,0,.335-.831,1.02,1.02,0,0,0-.23-.691,1.582,1.582,0,0,0-.571-.426,8.272,8.272,0,0,0-.941-.345,9.366,9.366,0,0,1-1.327-.536,2.4,2.4,0,0,1-.876-.8,2.471,2.471,0,0,1-.365-1.427,2.819,2.819,0,0,1,.37-1.462,2.427,2.427,0,0,1,1.041-.951,3.434,3.434,0,0,1,1.537-.33,3.056,3.056,0,0,1,2.1.711,2.758,2.758,0,0,1,.9,1.982h-1.847a1.146,1.146,0,0,0-.365-.806,1.258,1.258,0,0,0-.906-.315,1.075,1.075,0,0,0-.786.285,1.1,1.1,0,0,0-.3.826.918.918,0,0,0,.22.626,1.7,1.7,0,0,0,.551.405,7.96,7.96,0,0,0,.931.355,9.068,9.068,0,0,1,1.332.541,2.433,2.433,0,0,1,.886.811,2.481,2.481,0,0,1,.37,1.417,2.955,2.955,0,0,1-.345,1.407,2.6,2.6,0,0,1-1.021,1.036,3.169,3.169,0,0,1-1.6.385A3.549,3.549,0,0,1,306.532,191.1Z" transform="translate(-232.126 -181.77)" fill="#2e2c2f"/>
        <path id="Path_24" data-name="Path 24" d="M355.572,191.1a2.718,2.718,0,0,1-1.111-.971,2.823,2.823,0,0,1-.42-1.5h1.8a1.4,1.4,0,0,0,.365.921,1.205,1.205,0,0,0,.906.335,1.286,1.286,0,0,0,.921-.315,1.086,1.086,0,0,0,.335-.831,1.02,1.02,0,0,0-.23-.691,1.582,1.582,0,0,0-.571-.426,8.276,8.276,0,0,0-.941-.345,9.363,9.363,0,0,1-1.327-.536,2.4,2.4,0,0,1-.876-.8,2.47,2.47,0,0,1-.365-1.427,2.819,2.819,0,0,1,.37-1.462,2.427,2.427,0,0,1,1.041-.951,3.434,3.434,0,0,1,1.537-.33,3.057,3.057,0,0,1,2.1.711,2.758,2.758,0,0,1,.9,1.982h-1.847a1.146,1.146,0,0,0-.365-.806,1.258,1.258,0,0,0-.906-.315,1.075,1.075,0,0,0-.786.285,1.1,1.1,0,0,0-.3.826.918.918,0,0,0,.22.626,1.7,1.7,0,0,0,.551.405,7.963,7.963,0,0,0,.931.355,9.069,9.069,0,0,1,1.332.541,2.433,2.433,0,0,1,.886.811,2.48,2.48,0,0,1,.37,1.417,2.955,2.955,0,0,1-.345,1.407,2.6,2.6,0,0,1-1.021,1.036,3.169,3.169,0,0,1-1.6.385A3.549,3.549,0,0,1,355.572,191.1Z" transform="translate(-256.616 -181.77)" fill="#2e2c2f"/>
        <path id="Path_25" data-name="Path 25" d="M385.117,183.557v2.363h2.818v1.5h-2.818v2.5H388.3v1.542H383.44V182.02H388.3v1.542h-3.179Z" transform="translate(-271.298 -181.895)" fill="#2e2c2f"/>
        <path id="Path_26" data-name="Path 26" d="M414.875,191.477l-1.847-3.674h-.791v3.674H410.56V182.04H413.7a3.351,3.351,0,0,1,1.657.385,2.536,2.536,0,0,1,1.026,1.041,3.091,3.091,0,0,1,.34,1.467,3.054,3.054,0,0,1-.481,1.682,2.47,2.47,0,0,1-1.427,1.036l2,3.825Zm-2.638-5.1h1.4a1.321,1.321,0,0,0,1.021-.37,1.475,1.475,0,0,0,.335-1.036,1.413,1.413,0,0,0-.335-1.006,1.335,1.335,0,0,0-1.021-.36h-1.4Z" transform="translate(-284.841 -181.905)" fill="#2e2c2f"/>
        <path id="Path_27" data-name="Path 27" d="M447.145,182.04l-3.069,9.437h-2.037l-3.069-9.437h1.8l2.3,7.5,2.293-7.5Z" transform="translate(-299.029 -181.905)" fill="#2e2c2f"/>
        <path id="Path_28" data-name="Path 28" d="M473.367,182.04v9.437H471.69V182.04Z" transform="translate(-315.369 -181.905)" fill="#2e2c2f"/>
        <path id="Path_29" data-name="Path 29" d="M492.471,184.133a4.274,4.274,0,0,1,1.522-1.717,4.119,4.119,0,0,1,4.621.2,4.222,4.222,0,0,1,1.477,2.243h-1.932a2.153,2.153,0,0,0-.811-1.011,2.176,2.176,0,0,0-1.206-.335,2.287,2.287,0,0,0-1.3.385,2.521,2.521,0,0,0-.886,1.086,4.445,4.445,0,0,0,0,3.289,2.522,2.522,0,0,0,.886,1.1,2.276,2.276,0,0,0,1.3.385,2.143,2.143,0,0,0,1.206-.345,2.27,2.27,0,0,0,.811-1.021h1.932a4.254,4.254,0,0,1-1.467,2.253,4.138,4.138,0,0,1-4.626.19,4.256,4.256,0,0,1-1.522-1.712,5.884,5.884,0,0,1-.005-4.981Z" transform="translate(-325.471 -181.785)" fill="#2e2c2f"/>
        <path id="Path_30" data-name="Path 30" d="M527.177,183.557v2.363H530v1.5h-2.818v2.5h3.179v1.542H525.5V182.02h4.856v1.542h-3.179Z" transform="translate(-342.241 -181.895)" fill="#2e2c2f"/>
      </g>
    </g>
  </g>
</svg>
