<svg xmlns="http://www.w3.org/2000/svg" width="333.571" height="99.487" viewBox="0 0 333.571 99.487">
  <g id="logo" transform="translate(-19.816 -83.522)">
    <path id="Path_1" data-name="Path 1" d="M100.5,137.2a1.39,1.39,0,0,0-1.689-.957,16.6,16.6,0,0,0-5.222,2.608,18.286,18.286,0,0,0-7.161,10.373,24.69,24.69,0,0,0-.353,9.435c-.2.09-.4.173-.6.257a50.942,50.942,0,0,1-4.8,1.728c-.565.173-1.137.34-1.7.52h0a9.394,9.394,0,0,1,.938-2.254c.167-.3.353-.584.552-.874a.225.225,0,0,1,.032-.051c.321-.462.623-.88.886-1.329a1.731,1.731,0,0,0,.1-.186,6.63,6.63,0,0,0,.411-.886,10.952,10.952,0,0,0,.584-2.351A19.293,19.293,0,0,0,80.4,140.914a9.385,9.385,0,0,0-5.254-4.393,1.4,1.4,0,0,0-1.548.629,16.331,16.331,0,0,0-2.01,4.881,13.918,13.918,0,0,0,1.265,10.443,16.223,16.223,0,0,0,4.721,4.971,10.073,10.073,0,0,0-1.529,4.958,12.4,12.4,0,0,0-3.565,3.2,16.3,16.3,0,0,0-2.884,6.789q-.511-2.158-.957-4.322c-.668-3.288-1.22-6.628-1.593-9.987a1.206,1.206,0,0,0-.058-.52,73.463,73.463,0,0,1-.167-14.791,45.769,45.769,0,0,1,1-6.114c.263-1.111.591-2.19.951-3.263a1.072,1.072,0,0,1,.077-.148,5.71,5.71,0,0,1,.334-.533c.045-.064.09-.128.141-.193-.071.1.206-.257.263-.328a8.94,8.94,0,0,1,4.091-2.646c2.55-.854,5.279-.7,7.784-1.728a10.812,10.812,0,0,0,4.451-3.2,11.194,11.194,0,0,0,.739-1.04c3.057.045,6.217-.565,8.561-2.64a8.619,8.619,0,0,0,2.71-5.029,7.159,7.159,0,0,0,.128-1.432,1.4,1.4,0,0,0-1.008-1.323,9.752,9.752,0,0,0-8.24,2.126,16.148,16.148,0,0,0-3.956,5.01q-.337.645-.617,1.31a.556.556,0,0,0-.045.109c-.013.032-.026.058-.039.09a1.027,1.027,0,0,0-.039.636c-.077.122-.154.238-.238.36-.045.058-.09.109-.135.161-.109.122-.212.244-.328.36a7.882,7.882,0,0,1-3.166,2.049,12.426,12.426,0,0,1-1.7.475,18.756,18.756,0,0,0,.963-2.319,20.292,20.292,0,0,1,2.6-5.042,34.914,34.914,0,0,1,4.22-5.016c2.736-1.387,5.222-3.391,6.346-6.326a8.612,8.612,0,0,0,.045-5.748,6.974,6.974,0,0,0-.572-1.329,1.392,1.392,0,0,0-1.548-.629,9.587,9.587,0,0,0-6.127,5.472,16.512,16.512,0,0,0-1.272,6.513,12.517,12.517,0,0,0,.051,1.3c-.8.873-1.567,1.786-2.293,2.723-.1-.2-.2-.4-.3-.6-.045-.1-.083-.186-.128-.283-.006-.019-.128-.315-.141-.353-.116-.308-.225-.617-.321-.931a13.674,13.674,0,0,1-.469-2.03,14.645,14.645,0,0,1,2.813-10.257c2.852-1.394,5.466-3.43,6.635-6.474a8.612,8.612,0,0,0,.045-5.748,6.975,6.975,0,0,0-.572-1.329,1.392,1.392,0,0,0-1.548-.629,9.587,9.587,0,0,0-6.127,5.472,16.511,16.511,0,0,0-1.272,6.513,13.452,13.452,0,0,0,.051,1.349.323.323,0,0,0,.013.077,16.81,16.81,0,0,0-2.742,11.33,16.051,16.051,0,0,0,2.306,6.358,20.113,20.113,0,0,0-2.152,4.322,17.85,17.85,0,0,1-2.023,4.2,14.132,14.132,0,0,0-2.595.668,15.064,15.064,0,0,0-1.676.758,51.87,51.87,0,0,0,1.991-7.258c.636-3.391.777-6.9-.906-9.987.347-1.657.777-3.295,1.259-4.913.218-.726.45-1.452.706-2.171s.475-1.285.745-1.875a13.759,13.759,0,0,1,.938-1.741c.039-.064.083-.122.128-.186a1.084,1.084,0,0,0,.411-.3c2.209-2.537,4.239-5.761,3.976-9.268a8.87,8.87,0,0,0-2.479-5.511,7.2,7.2,0,0,0-1.085-.938,1.4,1.4,0,0,0-1.663.212c-4.1,3.642-3.77,9.692-1.439,14.271a11.417,11.417,0,0,0-.983,1.7,32.276,32.276,0,0,0-1.779,4.65c-.289.938-.559,1.888-.8,2.839q-.164-.289-.308-.6c-.032-.064-.058-.135-.09-.2s-.051-.141-.077-.206c-.257-.694-.495-1.394-.732-2.094a.371.371,0,0,0,.019-.09c.591-3.333.674-7.148-1.374-10.039a8.876,8.876,0,0,0-4.92-3.43,7.194,7.194,0,0,0-1.432-.25,1.393,1.393,0,0,0-1.323,1.008c-1.663,5.273,1.683,9.955,5.877,12.813.1.071.212.141.321.212a33.7,33.7,0,0,0,1.31,3.532,21.261,21.261,0,0,0,1.747,2.845,13.746,13.746,0,0,1,.867,1.452c.064.135.128.27.193.4h0c.019.051.045.109.064.161.109.308.212.617.3.931.039.154.077.315.109.475.019.1.039.193.051.289.006.026.019.1.026.161s.013.109.013.128c.006.09.019.186.026.276.019.225.032.456.039.687.013.475,0,.944-.026,1.419-.013.244-.032.482-.058.726-.013.128-.026.25-.039.379-.006.051-.032.257-.039.3a34.444,34.444,0,0,1-.681,3.43,12.775,12.775,0,0,0-1.766-2.531,12.472,12.472,0,0,0-1.439-1.355,1.079,1.079,0,0,0-.36-.276,13.692,13.692,0,0,0-1.3-.886c-1.4-.854-2.967-1.342-4.374-2.184a9.21,9.21,0,0,1-2.19-1.8,1.262,1.262,0,0,0-.161-.206c-.039-.051-.077-.109-.109-.161-.116-.18-.225-.36-.328-.546-.051-.1-.1-.206-.154-.315v-.006a5.5,5.5,0,0,1-.2-.629c-.026-.1-.09-.52-.1-.462a5.3,5.3,0,0,1-.013-.957l.019-.212v-.006c.032-.141.051-.289.09-.43.051-.193.116-.385.18-.572a2.039,2.039,0,0,0,.09-.257c2.877-4.888.462-10.931-3.41-14.586L54.09,93.7a1.356,1.356,0,0,0-2.139.289c-1.452,3.057-2.55,6.737-1.323,10.064a8.909,8.909,0,0,0,3.828,4.579.706.706,0,0,1,.071.039,7.017,7.017,0,0,0,.3,3.847c-.443-.013-.88-.039-1.323-.077-.3-.032-.816-.116-1.278-.218a12.094,12.094,0,0,1-1.644-.488,8.184,8.184,0,0,1-2.075-1.182,9.6,9.6,0,0,0-1.863-7.38,16.507,16.507,0,0,0-5.023-4.3,12,12,0,0,0-1.214-.623c-.032-.013-.064-.026-.09-.039a1.359,1.359,0,0,0-.6-.154,1.246,1.246,0,0,0-.7.2,1.282,1.282,0,0,0-.482.482,1.362,1.362,0,0,0-.167.54,1.265,1.265,0,0,0-.019.154c-.328,3.41.051,7.078,2.325,9.795a8.617,8.617,0,0,0,4.958,2.845c.18.032.36.064.54.09a13.563,13.563,0,0,0,10.3,3.064c.071.077.148.161.225.238a12.79,12.79,0,0,0,3.545,2.428c.655.308,1.31.6,1.952.906a38.614,38.614,0,0,1-7.155,1.445,7.24,7.24,0,0,0-6.692-1.008,12.04,12.04,0,0,0-3.417,1.721,1.329,1.329,0,0,0-.27.2c-.045.032-.09.064-.135.1a1.376,1.376,0,0,0,0,1.94,1.316,1.316,0,0,0,.289.218c2.4,1.6,5.4,2.627,8.157,1.323a6.331,6.331,0,0,0,2.209-1.76,47.757,47.757,0,0,0,10.007-2.229,9.693,9.693,0,0,1,1.432,1.631,9.3,9.3,0,0,1,.719,1.252l.116.25c.019.051.071.167.077.193.077.206.154.417.218.629a11.6,11.6,0,0,1,.289,1.22c.013.058.013.109.026.167v.026c.013.135.026.276.032.411.013.2.019.4.013.61-.077.231-.161.469-.244.7-.565,1.625-1.214,3.218-1.766,4.849-.013.032-.026.058-.039.09l-.039.135c-.109.328-.212.649-.308.983a43.254,43.254,0,0,0-1.31,6.121,68.394,68.394,0,0,0-.462,13.944c-.719-.758-1.452-1.5-2.209-2.216a53.178,53.178,0,0,0-11.31-8.3,25.6,25.6,0,0,0-.058-3.9,21.46,21.46,0,0,0-.989-4.541,22.007,22.007,0,0,0-4.188-7.232,28.638,28.638,0,0,0-10.116-7.328,23.273,23.273,0,0,0-2.672-1.047,1.388,1.388,0,0,0-1.741,1.323,28.831,28.831,0,0,0,.591,4.92,30.159,30.159,0,0,0,3.468,9.583,19.477,19.477,0,0,0,9.2,8.266l.231.1a78.916,78.916,0,0,0-8.472.944c-4.38.764-8.831,2.473-11.94,5.755a15.823,15.823,0,0,0-3.879,7.4,1.422,1.422,0,0,0,.957,1.689,13.3,13.3,0,0,0,5.3.816,12.455,12.455,0,0,0,9.718-5.209,21.552,21.552,0,0,0,3.443-8.208c1.458-.154,2.922-.257,4.374-.366,1.773-.135,3.552-.25,5.324-.308a1.741,1.741,0,0,0,.392-.071c.931.5,1.85,1.028,2.755,1.612a50.549,50.549,0,0,1,6.288,4.785A56.25,56.25,0,0,1,63,156.99c.424.482.848.963,1.252,1.464.026.032.051.064.077.1q.414,3.661,1.066,7.27a113.9,113.9,0,0,0,3.918,15.909,2.305,2.305,0,0,1,.09.276,1.021,1.021,0,0,0,.167.4,1.192,1.192,0,0,0,.912.565,1.394,1.394,0,0,0,.61-.013,1.255,1.255,0,0,0,.816-.655,1.282,1.282,0,0,0,.141-1.028v-.006h0c-.006-.045-.013-.1-.019-.141,0-.013,0-.019-.006-.026-.039-.366-.083-.726-.109-1.092a29.211,29.211,0,0,1-.064-3.674c.019-.366.039-.726.071-1.085.013-.18.032-.353.051-.533.013-.122.026-.238.039-.36a.3.3,0,0,0,.006-.064c0-.013.006-.032.006-.058A21.161,21.161,0,0,1,72.5,171.9a12.468,12.468,0,0,1,2-4.438,6.744,6.744,0,0,1,.668-.829,10.925,10.925,0,0,1,1.04-1A8.559,8.559,0,0,1,77.09,165a11.822,11.822,0,0,1,1.31-.719,36.5,36.5,0,0,1,3.712-1.207q2.4-.78,4.714-1.773.588-.25,1.156-.52a1.4,1.4,0,0,0,.3-.141,25.286,25.286,0,0,0,9.7-7.553C101.431,148.461,101.817,142.642,100.5,137.2ZM89.132,118.814a9.234,9.234,0,0,1,3.076-2.492,7.038,7.038,0,0,1,1.908-.591c-.032.006.373-.032.424-.039.212-.013.424-.013.629-.013h0a.544.544,0,0,1-.026.109,10,10,0,0,1-.328,1.053c0,.006-.006.013-.006.019-.045.083-.077.173-.122.263a6.315,6.315,0,0,1-.321.578c-.1.173-.218.334-.334.495-.032.039-.058.077-.09.109-.09.1-.18.2-.27.3-.173.18-.353.34-.539.507-.058.045-.084.077-.1.09s-.019.013-.058.032c-.128.09-.25.18-.385.257a6.631,6.631,0,0,1-1.464.719,11.151,11.151,0,0,1-2.28.527c.321-.225.642-.456.963-.681.559-.385,1.118-.771,1.683-1.143a19.946,19.946,0,0,1,1.747-1.047,18.185,18.185,0,0,0-1.959.617c-.642.231-1.285.475-1.92.726-.283.109-.559.225-.835.334C88.715,119.308,88.862,119.122,89.132,118.814ZM83.878,122.8c0,.006-.006.006-.006.013C83.833,122.866,83.724,122.995,83.878,122.8ZM82.626,95.711a13.45,13.45,0,0,1,.43-1.586,6.729,6.729,0,0,1,.565-1.31c.128-.238.263-.469.411-.694.077-.116.154-.225.231-.334.019-.026.026-.039.032-.045.045-.058.09-.109.135-.167a6.359,6.359,0,0,1,2.139-1.689,1.658,1.658,0,0,0,.051.167c.045.161.077.328.109.488.013.083.026.167.045.244,0,.006.006.013.006.019v.045a8.694,8.694,0,0,1,.026,1.227c-.006.116-.019.238-.032.353h0a.2.2,0,0,1-.013.051c-.051.25-.1.5-.173.751a5.859,5.859,0,0,1-.225.642c-.019.039-.071.148-.09.193-.071.135-.135.263-.212.392a6.136,6.136,0,0,1-1.008,1.368A10.1,10.1,0,0,1,83.6,97.1c.116-.43.225-.867.347-1.3.18-.655.366-1.3.559-1.959a18.344,18.344,0,0,1,.668-1.92,17.91,17.91,0,0,0-1.1,1.728c-.347.591-.681,1.188-1.008,1.785-.2.36-.392.719-.584,1.085a.226.226,0,0,1,.006-.039C82.529,96.225,82.574,95.968,82.626,95.711Zm3.449,13.622c.013-.064.026-.193.032-.218.039-.257.09-.514.141-.771a13.449,13.449,0,0,1,.43-1.586,6.728,6.728,0,0,1,.565-1.31c.128-.238.263-.469.411-.694.077-.116.154-.225.231-.334.019-.026.026-.039.032-.045.045-.058.09-.109.135-.167a6.359,6.359,0,0,1,2.139-1.689,1.661,1.661,0,0,0,.051.167c.045.161.077.328.109.488.013.084.026.161.045.244,0,.006.006.013.006.019v.045a8.7,8.7,0,0,1,.026,1.227c-.006.116-.019.238-.032.353h0a.2.2,0,0,1-.013.051c-.051.251-.1.5-.173.751a5.856,5.856,0,0,1-.225.642c-.019.039-.071.148-.09.193-.071.135-.135.263-.212.392a6.137,6.137,0,0,1-1.008,1.368,10.737,10.737,0,0,1-1.439,1.265c.051-.193.1-.385.154-.572.18-.655.366-1.3.559-1.959a18.345,18.345,0,0,1,.668-1.92,17.912,17.912,0,0,0-1.1,1.728c-.347.591-.681,1.188-1.008,1.785-.154.283-.308.572-.462.854.006-.039.006-.071.013-.109C86.056,109.514,86.068,109.4,86.075,109.334ZM75.086,86.084l.006.006C74.713,85.859,74.97,85.981,75.086,86.084ZM74.5,89.623a6.562,6.562,0,0,1,1.323-2.807c.116.135.27.328.231.276.1.141.206.283.3.43a6.707,6.707,0,0,1,.373.662c.039.077.071.154.109.231.013.039.1.257.116.3a7,7,0,0,1,.225.8c.032.135.051.263.077.4-.006-.006.032.334.032.373a5.811,5.811,0,0,1-.186,1.972,10.036,10.036,0,0,1-1.156,2.73c-.006-.27-.013-.546-.013-.816-.006-.681-.006-1.355.006-2.036a19.554,19.554,0,0,1,.122-2.03,20.419,20.419,0,0,0-.6,1.965c-.173.662-.334,1.329-.488,2-.032.141-.064.289-.1.43-.1-.353-.2-.713-.276-1.079A9.8,9.8,0,0,1,74.5,89.623ZM60.8,93.2l-.064-.019A.347.347,0,0,0,60.8,93.2Zm3.481,6.551a7.711,7.711,0,0,1-2.364-6.288c.071.026.148.045.218.071s.148.058.225.084a.022.022,0,0,1,.013.006c.161.077.321.148.482.231s.34.186.507.289c.083.051.173.109.257.167.032.019.128.1.186.135s.128.109.148.122c.083.071.167.148.25.225.18.173.347.353.514.546a1.172,1.172,0,0,1,.083.1c.071.1.141.193.206.3a7.592,7.592,0,0,1,.424.739c.051.1.1.206.148.308.013.039.083.218.1.27a9.8,9.8,0,0,1,.289.963,10.153,10.153,0,0,1,.257,2.383l-.212-.4c-.308-.6-.617-1.207-.912-1.818a19.184,19.184,0,0,1-.809-1.863,19.9,19.9,0,0,0,.353,2.023c.148.668.3,1.336.469,2,.026.1.051.2.077.3C64.88,100.355,64.572,100.059,64.283,99.751ZM43.6,108.242c-.013-.006-.019-.013-.032-.019s-.019-.013-.032-.026c-.186-.167-.373-.328-.552-.5-.148-.148-.283-.308-.417-.469-.019-.026-.161-.218-.186-.257-.083-.128-.167-.257-.25-.392a8.515,8.515,0,0,1-.4-.758c-.006-.013-.026-.058-.039-.09a.936.936,0,0,1-.045-.122c-.064-.173-.122-.34-.18-.514a11.655,11.655,0,0,1-.5-3.423c.231.148.456.3.681.45a10.1,10.1,0,0,1,1.291,1.034,9.234,9.234,0,0,1,2.421,3.173,5.5,5.5,0,0,1,.3.816,5.711,5.711,0,0,1,.141.572c.013.051.071.437.071.411.013.122.026.238.032.36-.366-.4-.726-.8-1.085-1.207-.45-.507-.893-1.021-1.329-1.535a20.222,20.222,0,0,1-1.246-1.606,19.532,19.532,0,0,0,.841,1.869c.308.61.623,1.22.944,1.824.18.334.366.674.546,1.008a7.648,7.648,0,0,1-.706-.4A2.364,2.364,0,0,0,43.6,108.242Zm13.86,3.6c.019.064.051.148,0,0Zm-3.327-7.052a.412.412,0,0,1-.064-.084,8.694,8.694,0,0,1-.713-1.2c-.013-.019-.019-.039-.026-.045s-.006-.026-.013-.039c-.045-.128-.1-.257-.135-.385a7.6,7.6,0,0,1-.218-.835c-.006-.045-.039-.212-.051-.27s-.026-.244-.032-.289c-.026-.334-.032-.674-.026-1.008a11.519,11.519,0,0,1,.713-3.455,15.33,15.33,0,0,1,1.368,2.19,7.923,7.923,0,0,1,.809,6.166c-.167-.43-.334-.861-.495-1.291-.238-.636-.469-1.272-.687-1.914a18.777,18.777,0,0,1-.578-1.946,19.906,19.906,0,0,0,.109,2.049c.064.681.141,1.362.225,2.042.026.206.051.4.077.61a.987.987,0,0,1-.077-.083C54.257,104.928,54.193,104.857,54.135,104.786ZM51.6,122.333c.032-.013.032-.006,0,0Zm.173-.083a2.015,2.015,0,0,1-.206.1c-.026.006-.051.019-.083.026-.193.058-.385.109-.578.161a1.329,1.329,0,0,1-.141.026c-.116.013-.231.019-.347.026a5.446,5.446,0,0,1-.726-.026,5.689,5.689,0,0,1-1.413-.4c.173-.077.34-.148.495-.2a5.1,5.1,0,0,1,3.655-.128l-.064.064a.445.445,0,0,0-.1.064C52.1,122.063,51.938,122.16,51.771,122.25Zm-17.8,30.623a10.049,10.049,0,0,1-3.841,3.545c-.154.077-.315.154-.469.231-.026.013-.09.039-.141.058l-.193.077a11.371,11.371,0,0,1-1.124.347c-.334.083-.674.135-1.015.206h-.013c-.083.006-.167.019-.25.026-.193.019-.379.032-.572.045a12.616,12.616,0,0,1-1.908-.045l-.353-.039-.135-.019c-.25-.039-.5-.084-.745-.141-.109-.026-.218-.051-.334-.077a12.479,12.479,0,0,1,2.473-4.515,14.665,14.665,0,0,1,4.856-3.565,20.879,20.879,0,0,1,3.764-1.349c-.912.751-1.837,1.5-2.762,2.235q-1.435,1.146-2.9,2.254c-.488.366-.983.732-1.477,1.079s-1.008.694-1.535,1c.578-.2,1.156-.43,1.721-.674s1.124-.507,1.683-.764c1.111-.527,2.222-1.073,3.321-1.631s2.2-1.124,3.288-1.7c.141-.077.283-.148.424-.225A16.687,16.687,0,0,1,33.968,152.873Zm7.739-13.8a17.489,17.489,0,0,1-3.732-3.9,25.2,25.2,0,0,1-3.841-9.21c-.167-.739-.3-1.477-.417-2.229-.026-.167-.045-.334-.077-.5.006.026.006.058.013.1-.006-.032-.006-.071-.013-.1h0c-.013-.071-.026-.212-.006-.026a.707.707,0,0,1-.013-.116c-.013-.116-.026-.238-.039-.353a31.681,31.681,0,0,1,4.072,2.164c.424.27.841.546,1.252.841.225.154.443.321.662.482.039.026.116.09.154.116.109.083.218.173.328.257a24.511,24.511,0,0,1,2.543,2.357,18.5,18.5,0,0,1,5.035,10.572c.051.482.09.963.116,1.452-.456-.584-.912-1.169-1.362-1.753-1.1-1.432-2.209-2.877-3.295-4.322s-2.158-2.909-3.211-4.387l-.777-1.118c-.263-.373-.507-.751-.758-1.124-.5-.751-.983-1.522-1.419-2.319.328.848.694,1.683,1.092,2.5.2.411.392.822.6,1.227l.617,1.22c.841,1.619,1.708,3.218,2.588,4.817S43.6,138.9,44.5,140.484c.051.1.109.193.167.289A18.388,18.388,0,0,1,41.707,139.071Zm28.118-26.416c.006.026.019.045.026.071C69.845,112.7,69.832,112.674,69.825,112.654Zm.026.071c.077.154.045.1,0,0Zm5.626,38.793a11.715,11.715,0,0,1-.662-1.175,6.919,6.919,0,0,1-.456-1.13c-.116-.36-.218-.732-.3-1.1-.039-.18-.077-.366-.1-.546a2.78,2.78,0,0,1-.058-.45,12.989,12.989,0,0,1-.006-2.344c.013-.167.032-.334.051-.495.013-.077.026-.161.039-.238.058-.347.128-.694.206-1.034a16.841,16.841,0,0,1,.546-1.843c.083-.238.18-.469.27-.7,0-.006.006-.013.006-.019s.006-.013.006-.019c.013-.026.019-.045.032-.071.051-.109.1-.218.148-.328.064-.141.135-.283.2-.424a.261.261,0,0,1,.058.032,4.836,4.836,0,0,1,.906.629,7.492,7.492,0,0,1,1.6,1.94,14.448,14.448,0,0,1,1.811,5.369,19.868,19.868,0,0,1,.2,2.723c0,.443-.013.893-.045,1.336-.013.206-.032.4-.051.61-.013.1-.019.206-.039.315v.019c-.006.026-.006.064-.013.1q-.568-1.31-1.118-2.62c-.52-1.259-1.04-2.518-1.529-3.783-.244-.636-.482-1.272-.706-1.914s-.437-1.285-.61-1.946c.051.681.135,1.362.244,2.042s.225,1.355.347,2.03c.257,1.342.533,2.691.816,4.027s.584,2.653.886,3.969A13.3,13.3,0,0,1,75.477,151.518Zm20.553-.36a18.825,18.825,0,0,1-5.536,5.157c.109-.276.218-.546.328-.822q.761-1.888,1.554-3.776c.527-1.252,1.066-2.5,1.625-3.744.283-.617.565-1.233.867-1.843s.617-1.214.963-1.8c-.45.514-.88,1.053-1.285,1.6s-.809,1.111-1.2,1.67c-.784,1.124-1.548,2.261-2.306,3.4s-1.5,2.293-2.235,3.449c-.1.154-.193.308-.289.456a19.8,19.8,0,0,1,.4-4.3,14.975,14.975,0,0,1,2.473-5.78c.122-.18.25-.353.385-.533.039-.051.1-.135.116-.148.077-.09.148-.18.225-.27.289-.347.6-.674.912-1,.3-.3.617-.6.938-.873.128-.109.263-.225.392-.328.077-.064.154-.128.238-.186a.4.4,0,0,1,.039-.026q.029-.019.077-.058a19.114,19.114,0,0,1,3.372-1.985.441.441,0,0,0,.083-.039A15.7,15.7,0,0,1,96.03,151.158Z" transform="translate(0)" fill="#fff"/>
    <path id="Path_2" data-name="Path 2" d="M41.336,160.952h0a.058.058,0,0,0-.006-.032A.07.07,0,0,1,41.336,160.952Z" transform="translate(-7.696 -27.688)" fill="#fff"/>
    <g id="Group_1" data-name="Group 1" transform="translate(28.245 92.532)">
      <path id="Path_3" data-name="Path 3" d="M35.053,167l.456-.154v-8.491l-.058-.135c-.443-.983-.848-2.01-1.2-3.064l-1.31-3.924v16.583l.925-.366C34.244,167.287,34.648,167.139,35.053,167Z" transform="translate(-32.94 -116.753)" fill="#fff"/>
      <path id="Path_4" data-name="Path 4" d="M131.161,149.485c-.379.1-.777.193-1.175.276l-.546.109v11.285l1.079-.822c.2-.148.373-.283.539-.4.2-.141.417-.289.655-.45l.3-.2V149.26Z" transform="translate(-67.461 -116.048)" fill="#fff"/>
      <path id="Path_5" data-name="Path 5" d="M121.4,206.365l-.366.186v8.369H106.6l-.148.475c-.071.238-.148.488-.218.771-.045.161-.084.328-.122.5l-.186.822h17.682V205.17l-1,.559C122.211,205.941,121.807,206.159,121.4,206.365Z" transform="translate(-59.051 -136.049)" fill="#fff"/>
      <path id="Path_6" data-name="Path 6" d="M35.092,121.661l.417-.173V100.119h8.182l.051-.006a4.117,4.117,0,0,1,1.317,0l.051.006h7.8l.167-.43c.154-.4.321-.8.495-1.195l.417-.944H32.94v25.6l1.092-.867A4.3,4.3,0,0,1,35.092,121.661Z" transform="translate(-32.94 -97.55)" fill="#fff"/>
      <path id="Path_7" data-name="Path 7" d="M68.275,215.833l-.116-.527H35.513V206.25l-.854.244c-.385.109-.784.206-1.169.283l-.54.109v11h35.8l-.193-.822C68.455,216.648,68.365,216.244,68.275,215.833Z" transform="translate(-32.944 -136.436)" fill="#fff"/>
    </g>
    <g id="Group_4" data-name="Group 4" transform="translate(108.201 107.484)">
      <g id="Group_2" data-name="Group 2" transform="translate(0)">
        <path id="Path_8" data-name="Path 8" d="M179.389,144.17a10.117,10.117,0,0,1-4.265,2.608,18.507,18.507,0,0,1-6.153.989,10.986,10.986,0,0,1-8.227-3.147q-3.073-3.15-3.295-8.767l-.019-2.267a15.625,15.625,0,0,1,1.368-6.757,10.11,10.11,0,0,1,3.918-4.445,11.041,11.041,0,0,1,5.9-1.554q4.894,0,7.6,2.242a9.517,9.517,0,0,1,3.16,6.686h-6.082a4.972,4.972,0,0,0-1.407-3.134,4.532,4.532,0,0,0-3.057-.938,4.13,4.13,0,0,0-3.674,2.017,10.736,10.736,0,0,0-1.317,5.761v1.586a10.562,10.562,0,0,0,1.342,5.9,4.733,4.733,0,0,0,4.22,1.972,5.322,5.322,0,0,0,3.674-1.1v-4.066h-4.393v-4.335h10.707Z" transform="translate(-157.43 -120.83)" fill="#fff"/>
        <path id="Path_9" data-name="Path 9" d="M207.077,138.347H203.66v9.268h-6.32v-26.2h10.315a11.5,11.5,0,0,1,7.29,2.068,7.006,7.006,0,0,1,2.627,5.845,8.477,8.477,0,0,1-1.1,4.528A7.921,7.921,0,0,1,213,136.767l5.472,10.578v.27H211.7Zm-3.417-4.862h3.995a3.6,3.6,0,0,0,2.71-.944,4.3,4.3,0,0,0-.006-5.305,3.549,3.549,0,0,0-2.7-.963h-3.995v7.213Z" transform="translate(-171.707 -121.037)" fill="#fff"/>
        <path id="Path_10" data-name="Path 10" d="M251.036,136.49H241.1v6.262h11.734v4.862H234.78v-26.2h18.086v4.875H241.093v5.524h9.936v4.682Z" transform="translate(-185.101 -121.037)" fill="#fff"/>
        <path id="Path_11" data-name="Path 11" d="M283.149,136.49h-9.936v6.262h11.734v4.862H266.9v-26.2h18.086v4.875H273.213v5.524h9.936Z" transform="translate(-196.591 -121.037)" fill="#fff"/>
        <path id="Path_12" data-name="Path 12" d="M320.9,147.615h-6.281l-9.287-16.307v16.307h-6.32v-26.2h6.32l9.268,16.307V121.41h6.3Z" transform="translate(-208.078 -121.037)" fill="#fff"/>
        <path id="Path_13" data-name="Path 13" d="M367.357,142.72H358.7l-1.509,4.894h-6.75l9.608-26.2h5.941l9.685,26.2h-6.782Zm-7.148-4.875h5.633l-2.826-9.088Z" transform="translate(-226.476 -121.037)" fill="#fff"/>
        <path id="Path_14" data-name="Path 14" d="M402.427,138.347H399.01v9.268h-6.32v-26.2H403a11.5,11.5,0,0,1,7.29,2.068,7.006,7.006,0,0,1,2.627,5.845,8.476,8.476,0,0,1-1.1,4.528,7.879,7.879,0,0,1-3.462,2.916l5.472,10.578v.27h-6.769Zm-3.417-4.862H403a3.6,3.6,0,0,0,2.71-.944,4.3,4.3,0,0,0-.006-5.305,3.549,3.549,0,0,0-2.7-.963h-3.995v7.213Z" transform="translate(-241.59 -121.037)" fill="#fff"/>
        <path id="Path_15" data-name="Path 15" d="M446.386,136.49H436.45v6.262h11.734v4.862H430.13v-26.2h18.086v4.875H436.443v5.524h9.936v4.682Z" transform="translate(-254.984 -121.037)" fill="#fff"/>
        <path id="Path_16" data-name="Path 16" d="M484.138,147.615h-6.281l-9.287-16.307v16.307h-6.32v-26.2h6.32l9.268,16.307V121.41h6.3Z" transform="translate(-266.474 -121.037)" fill="#fff"/>
        <path id="Path_17" data-name="Path 17" d="M516.807,142.72H508.15l-1.509,4.894h-6.75l9.608-26.2h5.941l9.686,26.2h-6.782Zm-7.148-4.875h5.633l-2.826-9.088Z" transform="translate(-279.939 -121.037)" fill="#fff"/>
      </g>
      <g id="Group_3" data-name="Group 3" transform="translate(1.285 39.14)">
        <path id="Path_18" data-name="Path 18" d="M166.848,187.608a3.19,3.19,0,0,1-1.278,1.368,4.2,4.2,0,0,1-2.19.52h-1.8v4.65H159.43V182.04h3.956a4.3,4.3,0,0,1,2.126.488,3.216,3.216,0,0,1,1.317,1.336,4.1,4.1,0,0,1,.437,1.927A4.382,4.382,0,0,1,166.848,187.608Zm-2.241-.533a1.813,1.813,0,0,0,.43-1.291,1.554,1.554,0,0,0-1.753-1.766h-1.708v3.52h1.708A1.716,1.716,0,0,0,164.607,187.075Z" transform="translate(-159.43 -181.867)" fill="#fff"/>
        <path id="Path_19" data-name="Path 19" d="M190.512,192.22h3.539v1.927h-5.69V182.04h2.152Z" transform="translate(-169.779 -181.867)" fill="#fff"/>
        <path id="Path_20" data-name="Path 20" d="M219.945,191.834h-4.277l-.707,2.306H212.7l3.86-12.12h2.511l3.86,12.12h-2.28Zm-.584-1.946-1.554-5.061-1.554,5.061Z" transform="translate(-178.486 -181.859)" fill="#fff"/>
        <path id="Path_21" data-name="Path 21" d="M254.448,194.14H252.3l-4.875-8.3v8.3H245.27V182.02h2.152l4.875,8.324V182.02h2.152Z" transform="translate(-190.138 -181.859)" fill="#fff"/>
        <path id="Path_22" data-name="Path 22" d="M284.231,182.04V184h-2.865V194.14h-2.152V184H276.35V182.04Z" transform="translate(-201.256 -181.867)" fill="#fff"/>
        <path id="Path_23" data-name="Path 23" d="M306.965,193.735a3.489,3.489,0,0,1-1.426-1.246,3.621,3.621,0,0,1-.539-1.927h2.306a1.8,1.8,0,0,0,.469,1.182,1.546,1.546,0,0,0,1.163.43,1.649,1.649,0,0,0,1.182-.4,1.394,1.394,0,0,0,.43-1.066,1.308,1.308,0,0,0-.3-.886,2.03,2.03,0,0,0-.732-.546,10.613,10.613,0,0,0-1.207-.443,12.018,12.018,0,0,1-1.7-.687,3.081,3.081,0,0,1-1.124-1.021,3.17,3.17,0,0,1-.469-1.83,3.617,3.617,0,0,1,.475-1.875,3.114,3.114,0,0,1,1.336-1.22,4.406,4.406,0,0,1,1.972-.424,3.921,3.921,0,0,1,2.7.912,3.539,3.539,0,0,1,1.15,2.543h-2.37a1.47,1.47,0,0,0-.469-1.034,1.614,1.614,0,0,0-1.162-.4,1.38,1.38,0,0,0-1.008.366,1.415,1.415,0,0,0-.379,1.06,1.177,1.177,0,0,0,.283.8,2.175,2.175,0,0,0,.706.52,10.213,10.213,0,0,0,1.195.456,11.635,11.635,0,0,1,1.708.694,3.122,3.122,0,0,1,1.137,1.04,3.182,3.182,0,0,1,.475,1.818,3.791,3.791,0,0,1-.443,1.8,3.342,3.342,0,0,1-1.31,1.329,4.066,4.066,0,0,1-2.049.495A4.553,4.553,0,0,1,306.965,193.735Z" transform="translate(-211.505 -181.77)" fill="#fff"/>
        <path id="Path_24" data-name="Path 24" d="M356.005,193.735a3.488,3.488,0,0,1-1.426-1.246,3.621,3.621,0,0,1-.539-1.927h2.306a1.8,1.8,0,0,0,.469,1.182,1.546,1.546,0,0,0,1.163.43,1.649,1.649,0,0,0,1.182-.4,1.394,1.394,0,0,0,.43-1.066,1.308,1.308,0,0,0-.3-.886,2.029,2.029,0,0,0-.732-.546,10.62,10.62,0,0,0-1.207-.443,12.014,12.014,0,0,1-1.7-.687,3.08,3.08,0,0,1-1.124-1.021,3.169,3.169,0,0,1-.469-1.83,3.617,3.617,0,0,1,.475-1.875,3.114,3.114,0,0,1,1.336-1.22,4.406,4.406,0,0,1,1.972-.424,3.921,3.921,0,0,1,2.7.912,3.538,3.538,0,0,1,1.15,2.543h-2.37a1.47,1.47,0,0,0-.469-1.034,1.614,1.614,0,0,0-1.162-.4,1.379,1.379,0,0,0-1.008.366,1.414,1.414,0,0,0-.379,1.06,1.178,1.178,0,0,0,.283.8,2.175,2.175,0,0,0,.707.52,10.212,10.212,0,0,0,1.195.456,11.638,11.638,0,0,1,1.708.694,3.122,3.122,0,0,1,1.137,1.04,3.181,3.181,0,0,1,.475,1.818,3.791,3.791,0,0,1-.443,1.8,3.34,3.34,0,0,1-1.31,1.329,4.066,4.066,0,0,1-2.049.495A4.553,4.553,0,0,1,356.005,193.735Z" transform="translate(-229.048 -181.77)" fill="#fff"/>
        <path id="Path_25" data-name="Path 25" d="M385.592,183.992v3.032h3.616v1.927h-3.616v3.211h4.078v1.978h-6.23V182.02h6.23V184h-4.078Z" transform="translate(-239.566 -181.859)" fill="#fff"/>
        <path id="Path_26" data-name="Path 26" d="M416.1,194.147l-2.37-4.714h-1.015v4.714H410.56V182.04h4.033a4.3,4.3,0,0,1,2.126.495,3.254,3.254,0,0,1,1.317,1.336,3.966,3.966,0,0,1,.437,1.882,3.919,3.919,0,0,1-.617,2.158,3.169,3.169,0,0,1-1.831,1.329l2.569,4.907Zm-3.385-6.538h1.8a1.7,1.7,0,0,0,1.31-.475,1.893,1.893,0,0,0,.43-1.329,1.813,1.813,0,0,0-.43-1.291,1.713,1.713,0,0,0-1.31-.462h-1.8Z" transform="translate(-249.267 -181.867)" fill="#fff"/>
        <path id="Path_27" data-name="Path 27" d="M449.458,182.04l-3.937,12.107h-2.614L438.97,182.04h2.306l2.954,9.621,2.942-9.621Z" transform="translate(-259.43 -181.867)" fill="#fff"/>
        <path id="Path_28" data-name="Path 28" d="M473.842,182.04v12.107H471.69V182.04Z" transform="translate(-271.135 -181.867)" fill="#fff"/>
        <path id="Path_29" data-name="Path 29" d="M492.626,184.793a5.483,5.483,0,0,1,1.953-2.2,5.284,5.284,0,0,1,5.928.25,5.416,5.416,0,0,1,1.895,2.877h-2.479a2.762,2.762,0,0,0-1.04-1.3,2.793,2.793,0,0,0-1.548-.43,2.934,2.934,0,0,0-1.67.495,3.235,3.235,0,0,0-1.137,1.394,5.7,5.7,0,0,0,0,4.22,3.236,3.236,0,0,0,1.137,1.407,2.92,2.92,0,0,0,1.67.495,2.75,2.75,0,0,0,1.548-.443,2.913,2.913,0,0,0,1.04-1.31H502.4a5.457,5.457,0,0,1-1.882,2.89,5.309,5.309,0,0,1-5.935.244,5.461,5.461,0,0,1-1.952-2.2,7.548,7.548,0,0,1-.006-6.391Z" transform="translate(-278.372 -181.781)" fill="#fff"/>
        <path id="Path_30" data-name="Path 30" d="M527.652,183.992v3.032h3.616v1.927h-3.616v3.211h4.078v1.978H525.5V182.02h6.23V184h-4.078Z" transform="translate(-290.385 -181.859)" fill="#fff"/>
      </g>
    </g>
  </g>
</svg>
